<svg xmlns="http://www.w3.org/2000/svg" viewBox="-23334.256 -22914.344 123.283 58.645">
  <defs>
    <style>
      .cls-1 {
        fill: #fff;
      }

      .cls-2 {
        fill: #29abe2;
      }
    </style>
  </defs>
  <g id="Group_33904" data-name="Group 33904" transform="translate(-23360.1 -22920)">
    <path id="Path_890" data-name="Path 890" class="cls-1" d="M46.9,22.3c-.3,1-.7,2-1,3-2.5,7-4.9,14-7.4,21a.462.462,0,0,1-.5.3,8.845,8.845,0,0,0-2.3,0c-.3,0-.4-.1-.5-.4-1.6-5.6-3.5-11-5.2-16.6-1.4-4.2-2.7-8.5-4.1-12.7-.1-.4-.1-.4.3-.4a14.456,14.456,0,0,0,3.6,0c.3,0,.4,0,.5.3.5,1.8,1,3.5,1.5,5.3,1.2,4.3,2.5,8.6,3.8,12.8.7,2.1,1.3,4.2,2,6.4,0,.1,0,.1.1.2a.2.2,0,1,0,.4,0c0-.1.1-.2.1-.3,1.8-5.3,3.6-10.7,5.4-16,.9-2.6,1.7-5.3,2.5-7.9,0-.1,0-.1.1-.2.2-.6.2-.6.8-.6h1.8c.4,0,.5.1.6.4.4,1.3.9,2.7,1.2,4,1.1,3.9,2.5,7.6,3.7,11.5,1,3,2,5.9,3,8.9.1.2,0,.5.3.5s.2-.3.3-.5c1.8-5.4,3.4-10.8,5.1-16.2.9-2.8,1.7-5.5,2.4-8.3.1-.2.2-.3.4-.3a9.637,9.637,0,0,0,2.4,0c.3-.1.4,0,.2.3-3.2,8.5-6,17.2-9,25.7l-1.2,3.6c-.1.3-.2.4-.5.3a8.854,8.854,0,0,0-2.3,0c-.3.1-.4,0-.5-.3-.5-1.6-1.1-3.2-1.6-4.8-1.7-5.3-3.4-10.5-5.1-15.8a26.923,26.923,0,0,0-1.3-3.2Z"/>
    <path id="Path_891" data-name="Path 891" class="cls-1" d="M131.1,35v6.5c0,1.4,0,2.8.1,4.1v.7q0,.45-.3.3a2.769,2.769,0,0,1-.9-.1,9.663,9.663,0,0,0-2.4.1h-.3a.265.265,0,0,1-.3-.3,20.9,20.9,0,0,1,.1-2.5c0-.6.1-1.2.1-1.8,0-2.1,0-4.1.1-6.2,0-1.7,0-3.5.1-5.2a54.188,54.188,0,0,0,0-5.7c0-2.2-.2-4.4-.2-6.6V16.8a.265.265,0,0,1,.3-.3c.8,0,1.6.1,2.4.1h1.8c1.8-.1,3.6-.1,5.4-.1a18.933,18.933,0,0,1,4.7.6,5.327,5.327,0,0,1,3.5,2.7,7.321,7.321,0,0,1-.3,7.8,8.187,8.187,0,0,1-3.2,2.6,14.657,14.657,0,0,1-4,1.4c-.4.1-.4.1-.2.4,2.9,3.7,5.8,7.3,8.7,11,.8,1,1.8,2,2.6,3.1.1.1.3.2.2.4-.1.1-.3,0-.4,0a12.75,12.75,0,0,0-3.9,0,.7.7,0,0,1-.9-.4c-2-2.9-4.2-5.6-6.3-8.4-1.4-1.9-3-3.7-4.6-5.5a.52.52,0,0,0-.4-.2h-1.1a.265.265,0,0,0-.3.3,8.265,8.265,0,0,0-.1,2.7Zm3.2-16.6h-2.7c-.5,0-.5.1-.5.6,0,1.9,0,3.8-.1,5.6s0,3.6-.1,5.4c0,.3.1.3.3.4a22.854,22.854,0,0,0,3.7,0,9.764,9.764,0,0,0,3.3-.7,5.958,5.958,0,0,0,3.8-7,5.2,5.2,0,0,0-4.7-4.3A29.944,29.944,0,0,0,134.3,18.4Z"/>
    <path id="Path_892" data-name="Path 892" class="cls-1" d="M112.5,31.7v9.5c0,1.5.1,2.9.2,4.4v.9c0,.2-.1.2-.3.2-.3,0-.7-.1-1-.1a12.213,12.213,0,0,0-2.7.1c-.3,0-.4,0-.3-.3.1-1.7.2-3.3.2-5v-.2c0-2.6,0-5.2.1-7.8,0-1.9,0-3.8.1-5.6.1-2.8,0-5.7.1-8.5,0-.4,0-.4-.5-.4-1.2,0-2.5.1-3.7.1-1.1.1-2.3.2-3.4.2-.6,0-1.3.1-1.9.1a.215.215,0,0,1-.2-.2c.1-.7,0-1.5.1-2.2,0-.2.2-.2.3-.2a9.7,9.7,0,0,1,1.7.1c.6.1,1.3,0,1.9.1a20.083,20.083,0,0,0,2.5.1c2.4.1,4.8.1,7.2.1,2.1,0,4.2-.1,6.3-.2.8,0,1.7-.1,2.5-.1.2,0,.3,0,.3.3a8.1,8.1,0,0,0,0,2.2c0,.2,0,.3-.2.2-1.9-.2-3.7-.4-5.6-.5-1.1-.1-2.1,0-3.2,0-.1,0-.2,0-.2.2s-.1.4-.1.6C112.5,24.1,112.5,28.5,112.5,31.7Z"/>
    <path id="Path_893" data-name="Path 893" class="cls-1" d="M91.6,11.3a3.179,3.179,0,0,0-1.1,1.2,6.765,6.765,0,0,0-.7,2.7v.7c0,.2.1.4-.1.5-.1,0-.3-.2-.4-.3a4.224,4.224,0,0,1-.2-4.8,7.464,7.464,0,0,1,2.6-2.7,18.334,18.334,0,0,1,5.4-2.3h.3c0,.1-.1.2-.1.3a6.736,6.736,0,0,0-.7,4.2,8.909,8.909,0,0,1-.6,4.6c-.8,1.9-2.2,2.5-4.2,2.1a.367.367,0,0,1-.3-.1c-.9-.3-1.2-.6-1.2-1.5a7.775,7.775,0,0,1,1.1-4.2A.758.758,0,0,1,91.6,11.3Z"/>
    <path id="Path_894" data-name="Path 894" class="cls-1" d="M87.5,8.6c-.1.1,0,.2.1.3a5.262,5.262,0,0,1,.4,1.8.9.9,0,0,1-.7,1,1.843,1.843,0,0,1-2.4-1,4.624,4.624,0,0,1-.4-2.6A3.948,3.948,0,0,0,84.1,6c0-.1-.1-.2-.1-.3.1-.1.2,0,.3,0a7.649,7.649,0,0,1,3.5,1.7,2.7,2.7,0,0,1,.8,3.3v.1c-.1.1-.1.3-.3.3s-.1-.3-.1-.4A3.371,3.371,0,0,0,87.7,9C87.7,8.7,87.6,8.6,87.5,8.6Z"/>
    <g id="Group_1034" data-name="Group 1034">
      <path id="Path_895" data-name="Path 895" class="cls-1" d="M71,45.4a13.077,13.077,0,0,0,8.5,3.1,17.7,17.7,0,0,0,2.3-.1,8.915,8.915,0,0,0,1.1-.2c.4-.2.3-.5-.3-1a7.777,7.777,0,0,1-1.4-7.1,8.76,8.76,0,0,1,.8-2h0V38a13.214,13.214,0,0,1,8.9-6.9,11.548,11.548,0,0,1,1.6-.2,6.715,6.715,0,0,1,5,1.8,5.431,5.431,0,0,1,1.6,3.4A9.256,9.256,0,0,1,97,42.9a13.669,13.669,0,0,1-3.7,3.5c-.2.1-.3.1-.4,0l.8,1h0a.1.1,0,0,1,.1-.1,13.947,13.947,0,0,0,2.7-2.1,12.485,12.485,0,0,0,3.7-7.5,7.29,7.29,0,0,0-1-4.6.9.9,0,0,1-.1-.5,14.543,14.543,0,0,0,.1-5.5,11.935,11.935,0,0,0-4.6-7.7,13.327,13.327,0,0,0-7.9-2.8,15.682,15.682,0,0,0-5.7.7A20.5,20.5,0,0,0,68.3,28a16.236,16.236,0,0,0-1.7,9.7A13.345,13.345,0,0,0,71,45.4Z"/>
    </g>
    <g id="Group_1035" data-name="Group 1035">
      <path id="Path_896" data-name="Path 896" class="cls-2" d="M75.7,64.1a25.718,25.718,0,0,1-8.4-1.5c-1.6-.6-3.2-1.3-4.7-1.9-.8-.3-1.5-.7-2.3-1a32.7,32.7,0,0,0-6.7-2.2,29.719,29.719,0,0,0-4.9-.6h0a11.655,11.655,0,0,0-7.2,2.5c-.6.5-1.1,1-1.6,1.5,0,.1-.2.2-.4.2H39v-.2a.845.845,0,0,1,.2-.6A12.348,12.348,0,0,1,42.7,57,22.312,22.312,0,0,1,50,53.8a17.61,17.61,0,0,1,3.3-.3,20.672,20.672,0,0,1,5.3.8c1.8.5,3.6,1.2,5.4,1.9l1.1.5A31.456,31.456,0,0,0,71,58.5a24.583,24.583,0,0,0,2.8.2,14.769,14.769,0,0,0,2.1-.1,17.105,17.105,0,0,0,4.9-1,6.374,6.374,0,0,1,.7-.2c-1.1.1-2.1.2-3.1.2h-.8a27.967,27.967,0,0,1-11.1-2.3c-1.6-.6-3-1.4-4.3-2a19.781,19.781,0,0,0-6.5-2.1,14.084,14.084,0,0,0-2-.1,19.725,19.725,0,0,0-4.8.6,37.1,37.1,0,0,0-6.5,2.7,12.811,12.811,0,0,1-4.5,1.4c-.3,0-.6.1-.9.1a4.823,4.823,0,0,1-4-1.7.85.85,0,0,1-.3-.5v-.3l.4-.1h.1a.52.52,0,0,1,.4.2,4.47,4.47,0,0,0,2.8.9,5.7,5.7,0,0,0,1.3-.1,14.536,14.536,0,0,0,4-1.6,17.394,17.394,0,0,0,1.8-1.1c.6-.3,1.1-.7,1.7-1a18.5,18.5,0,0,1,5-1.7,25.6,25.6,0,0,1,5.5-.5h.5a22.649,22.649,0,0,1,6.9,1.1,24.37,24.37,0,0,0,6.1,1.1h1.5c1.3,0,2.6-.1,3.9-.2l1.2-.1a17.5,17.5,0,0,0,3.2-.4c1.5-.3,4.3-1.4,4.5-2.2a.31.31,0,0,0-.1-.2A8.11,8.11,0,0,1,81.9,40c.4-1.4.6-2,1.2-2h.1A13.391,13.391,0,0,1,91,42a29.444,29.444,0,0,1,3.1,4.1l.1.2.9,1.2h0a5.871,5.871,0,0,0,2.3,1.9,5.558,5.558,0,0,0,2.3.4h.8a28.958,28.958,0,0,0,4.1-.6c.6-.1,1.3-.2,1.9-.3a19.525,19.525,0,0,1,2.3-.2,14.335,14.335,0,0,1,6.1,1.4,27.827,27.827,0,0,0,5.2,1.9,10.5,10.5,0,0,0,2.4.3,9.022,9.022,0,0,0,4.6-1.2,8.5,8.5,0,0,1,3.4-1.1h.5a4.2,4.2,0,0,1,2.1.6c.1.1.4.2.4.6v.4l-.4.1H133c-.2,0-.3-.1-.5-.1h-.6a4.058,4.058,0,0,0-1.7.5,11.8,11.8,0,0,0-1.8,1.3l-.5.4a13.283,13.283,0,0,1-6.1,2.4,19.419,19.419,0,0,1-2.4.2,16.787,16.787,0,0,1-7.4-1.8,16.081,16.081,0,0,0-5.2-1.4h-1.4a19.269,19.269,0,0,0-2.4.1,27.257,27.257,0,0,1,7.5,2.4l.5.2-.4.4a.758.758,0,0,1-.4.2H110a30.84,30.84,0,0,0-6.8-.8h-1.4a25.75,25.75,0,0,0-11.1,2.9,23.6,23.6,0,0,0-3.1,2,19.566,19.566,0,0,1-9.5,3.7A9.736,9.736,0,0,0,75.7,64.1Z"/>
      <path id="Path_897" data-name="Path 897" d="M83,38.5h0a11.955,11.955,0,0,1,7.6,3.9,41.176,41.176,0,0,1,3.2,4.1l.1.1h0l.8,1a.1.1,0,0,0,.1.1,6.93,6.93,0,0,0,2.5,2,6.723,6.723,0,0,0,2.4.4h.8c2-.1,4-.6,6-.9a17.853,17.853,0,0,1,2.3-.2,12.881,12.881,0,0,1,6,1.4,23.879,23.879,0,0,0,5.3,1.9,11.342,11.342,0,0,0,2.5.3,10.05,10.05,0,0,0,4.8-1.2,9.368,9.368,0,0,1,3.2-1.1h.5a4.136,4.136,0,0,1,1.9.5c.1.1.2.1.2.3h-.1c-.2,0-.4-.1-.6-.1H132a3.292,3.292,0,0,0-1.9.6,20.709,20.709,0,0,0-2.4,1.7,14.328,14.328,0,0,1-6,2.4,17.853,17.853,0,0,1-2.3.2,17.319,17.319,0,0,1-7.3-1.7,14.39,14.39,0,0,0-5.4-1.4h-1.4a29.662,29.662,0,0,0-4.2.3,2.92,2.92,0,0,0-.9.2A29.69,29.69,0,0,1,110.3,56c-.1.1-.1.1-.2.1h-.2a27.1,27.1,0,0,0-6.9-.8h-1.4a27.363,27.363,0,0,0-11.2,2.9,32.841,32.841,0,0,0-3.1,2A19.721,19.721,0,0,1,78,63.8a19.269,19.269,0,0,1-2.4.1,23.856,23.856,0,0,1-8.3-1.5c-2.4-.8-4.7-1.9-7-2.9a31.79,31.79,0,0,0-6.8-2.2,27.344,27.344,0,0,0-5-.6h-.1A11.713,11.713,0,0,0,41,59.3a12.878,12.878,0,0,0-1.7,1.6.349.349,0,0,1-.2.1h0a.52.52,0,0,1,.2-.4,12.559,12.559,0,0,1,3.3-3.2,19.226,19.226,0,0,1,7.2-3.1A17.329,17.329,0,0,1,53,54a18.761,18.761,0,0,1,5.2.8,56.91,56.91,0,0,1,6.5,2.4,24.485,24.485,0,0,0,6,1.8,28.253,28.253,0,0,0,2.9.2,16.951,16.951,0,0,0,2.2-.1,17.092,17.092,0,0,0,5-1c1.1-.4,2.2-.8,3.2-1.2.1,0,.1,0,.2-.2a.6.6,0,0,0-.4.1,34.279,34.279,0,0,1-5.6.6h-.8a29.97,29.97,0,0,1-11-2.2c-1.5-.6-2.9-1.3-4.3-2a19.583,19.583,0,0,0-6.6-2.1,14.769,14.769,0,0,0-2.1-.1,16.59,16.59,0,0,0-4.9.7,31.924,31.924,0,0,0-6.6,2.8,13.555,13.555,0,0,1-4.3,1.4h-.9a4.86,4.86,0,0,1-3.8-1.6c-.1-.1-.2-.2-.2-.3h.1c.1,0,.1.1.2.1a4.719,4.719,0,0,0,3,1,6.752,6.752,0,0,0,1.4-.2,12.3,12.3,0,0,0,4.1-1.7c1.2-.7,2.3-1.4,3.5-2.1a14.122,14.122,0,0,1,4.9-1.6,25.029,25.029,0,0,1,5.5-.5h.5a22.5,22.5,0,0,1,6.8,1.1,26.022,26.022,0,0,0,6.2,1.1h1.5c1.5,0,3.1-.1,4.6-.2a24.5,24.5,0,0,0,3.8-.4c1.1-.3,6-1.8,4.6-3.1A7.777,7.777,0,0,1,82,40.4c.5-1.7.7-1.9,1-1.9m0-.8h0c-.9,0-1.2,1-1.6,2.3a8.493,8.493,0,0,0,1.5,7.8h0c-.4.6-2.8,1.5-4.2,1.8a29.093,29.093,0,0,1-3.1.4H74.4c-1.3.1-2.6.2-3.9.2H69a23.592,23.592,0,0,1-6-1.1A23.3,23.3,0,0,0,56,48h-.5a34.3,34.3,0,0,0-5.6.5,17.992,17.992,0,0,0-5.1,1.7c-.6.3-1.2.7-1.7,1-.6.4-1.2.7-1.8,1.1a13.847,13.847,0,0,1-3.9,1.6,6.151,6.151,0,0,1-1.3.1,4.147,4.147,0,0,1-2.5-.8A.845.845,0,0,0,33,53h-.3l-.6.2.1.6a1.4,1.4,0,0,0,.4.7,5.661,5.661,0,0,0,4.3,1.8,3.751,3.751,0,0,0,1-.1,12.992,12.992,0,0,0,4.6-1.5A33.11,33.11,0,0,1,49,52a18.933,18.933,0,0,1,4.7-.6,13.4,13.4,0,0,1,2,.1,19.756,19.756,0,0,1,6.4,2,42.845,42.845,0,0,0,4.3,2,30.824,30.824,0,0,0,11.3,2.3h.1A11.019,11.019,0,0,1,76,58c-.8,0-1.5.1-2.1.1a24.583,24.583,0,0,1-2.8-.2,30.445,30.445,0,0,1-5.8-1.7,3.7,3.7,0,0,1-1.1-.5,42.866,42.866,0,0,0-5.4-1.9,21.406,21.406,0,0,0-5.4-.8,18.412,18.412,0,0,0-3.3.3,20.089,20.089,0,0,0-7.4,3.2,12.638,12.638,0,0,0-3.5,3.4h0a1.3,1.3,0,0,0-.3.9l.1.6.6.1h.1a.867.867,0,0,0,.7-.4c.5-.5,1-1,1.6-1.5a10.827,10.827,0,0,1,6.9-2.5H49a27.383,27.383,0,0,1,4.8.6,31.928,31.928,0,0,1,6.6,2.2c.8.3,1.5.7,2.3,1a38.474,38.474,0,0,0,4.7,1.9,26.291,26.291,0,0,0,8.5,1.5,19.269,19.269,0,0,0,2.4-.1A20.666,20.666,0,0,0,88,60.5c.9-.6,1.9-1.3,3-1.9a25.913,25.913,0,0,1,10.9-2.9h1.4a29.951,29.951,0,0,1,6.7.8c.1,0,.2.1.3.1a.831.831,0,0,0,.7-.3l.8-.8-1-.5a22.233,22.233,0,0,0-4.9-1.8h.9a13.264,13.264,0,0,1,5.1,1.3,17.956,17.956,0,0,0,7.6,1.8,19.418,19.418,0,0,0,2.4-.2,13.717,13.717,0,0,0,6.3-2.5c.2-.1.3-.3.5-.4a9.392,9.392,0,0,1,1.8-1.2,3.675,3.675,0,0,1,1.6-.5h.5a3.536,3.536,0,0,0,.6.1h.2l.7-.1-.1-.7a1.078,1.078,0,0,0-.6-.8,4.645,4.645,0,0,0-2.3-.6h-.5a8.944,8.944,0,0,0-3.5,1.1,8.47,8.47,0,0,1-4.4,1.1,9.862,9.862,0,0,1-2.4-.3,20.92,20.92,0,0,1-5.1-1.8,13.808,13.808,0,0,0-6.3-1.4,19.418,19.418,0,0,0-2.4.2c-.6.1-1.3.2-1.9.3-1.3.2-2.7.5-4,.6h-.7a4.378,4.378,0,0,1-2.1-.4,6.192,6.192,0,0,1-2.1-1.6h0l-.2-.2-.8-1h-.4a41.176,41.176,0,0,0-3.2-4.1,12.949,12.949,0,0,0-8-4.1.1.1,0,0,0-.1-.1Z"/>
    </g>
  </g>
</svg>
